 <svg version="1.0" xmlns="http://www.w3.org/2000/svg"  width="200.000000pt" height="200.000000pt" viewBox="0 0 200.000000 200.000000"  preserveAspectRatio="xMidYMid meet">  <g transform="translate(0.000000,200.000000) scale(0.100000,-0.100000)" fill="#000000" stroke="none"> <path d="M710 1830 c-8 -5 -10 -10 -5 -10 6 0 17 5 25 10 8 5 11 10 5 10 -5 0 -17 -5 -25 -10z"/> <path d="M895 1814 c-11 -2 -45 -9 -75 -15 -122 -25 -254 -83 -228 -101 9 -7 7 -8 -8 -3 -26 7 -78 -28 -161 -108 -82 -78 -120 -134 -105 -149 9 -9 12 -9 12 2 0 22 67 93 75 81 3 -6 -1 -14 -10 -17 -9 -4 -29 -29 -44 -56 -24 -41 -29 -46 -34 -29 -3 12 -9 21 -15 21 -15 0 -95 -172 -96 -207 -1 -17 -4 -29 -7 -27 -14 8 -33 -135 -32 -228 2 -113 35 -253 84 -350 41 -82 50 -93 60 -76 12 18 11 30 -1 23 -6 -3 -10 -1 -10 4 0 6 4 11 9 11 17 0 22 -19 11 -41 -10 -17 -7 -27 15 -59 23 -33 77 -90 134 -140 39 -34 86 -63 169 -104 201 -100 435 -111 645 -30 80 31 144 61 157 74 3 3 24 18 46 33 60 41 150 133 196 201 147 216 182 485 97 739 -33 95 -53 135 -110 212 -154 211 -381 331 -639 340 -63 2 -124 2 -135 -1z m248 -27 c15 -1 27 -6 27 -11 0 -5 -19 -5 -42 0 -47 9 -101 9 -163 0 -26 -3 -33 -2 -20 3 18 8 16 9 -10 13 -26 3 122 -1 208 -5z m-253 -7 c-8 -5 -19 -10 -25 -10 -5 0 -3 5 5 10 8 5 20 10 25 10 6 0 3 -5 -5 -10z m-46 -11 c-7 -13 -43 -17 -47 -5 -3 6 7 11 23 11 16 0 26 -3 24 -6z m-60 -8 c6 -9 -35 -24 -43 -16 -2 3 1 5 8 5 7 0 9 5 6 10 -3 6 1 10 9 10 8 0 17 -4 20 -9z m475 -2 c18 -6 31 -18 31 -27 -1 -15 -2 -15 -11 1 -7 12 -23 17 -57 17 -34 0 -43 3 -32 10 19 13 30 12 69 -1z m-47 -29 c37 -11 74 -27 81 -35 8 -8 17 -12 21 -10 3 3 2 0 -3 -6 -5 -6 -33 -14 -62 -18 -52 -6 -54 -8 -51 -34 3 -26 1 -27 -18 -17 -11 6 -20 7 -20 2 0 -16 39 -21 51 -6 6 8 24 14 40 14 19 0 29 5 29 15 0 8 6 15 13 15 7 0 22 6 32 14 18 13 18 14 -3 32 -12 10 -22 25 -22 34 0 13 1 13 10 0 5 -8 10 -12 10 -8 0 4 12 -4 26 -17 15 -14 34 -25 43 -25 9 0 1 8 -16 16 -18 9 -33 20 -33 24 0 5 18 -1 39 -13 22 -12 37 -25 35 -29 -5 -8 11 -12 30 -9 5 1 6 -5 3 -13 -4 -10 -1 -13 8 -10 8 3 20 1 27 -5 79 -64 88 -74 83 -95 -5 -16 -4 -17 4 -7 8 12 12 13 26 1 9 -7 14 -19 11 -27 -3 -8 -2 -12 3 -9 12 8 54 -41 46 -53 -3 -6 1 -11 9 -11 8 0 16 -10 18 -22 2 -13 9 -22 17 -20 8 2 11 -3 8 -12 -4 -9 0 -22 8 -30 8 -8 16 -23 18 -34 2 -11 8 -26 14 -34 16 -20 33 -77 33 -110 0 -17 4 -27 10 -23 15 9 12 -24 -4 -40 -12 -12 -14 -11 -14 8 -1 68 -6 97 -15 82 -5 -10 -4 -57 3 -118 18 -161 -14 -339 -82 -452 -9 -16 -26 -46 -37 -65 -30 -54 -118 -147 -185 -194 -122 -87 -226 -128 -369 -147 -188 -24 -383 25 -539 137 -61 43 -165 149 -174 176 -3 10 -9 18 -14 18 -18 0 -99 186 -114 262 -20 97 -20 253 -1 338 18 78 69 199 108 257 114 171 306 295 514 333 80 15 269 4 345 -20z m-522 0 c8 -5 11 -10 5 -10 -5 0 -17 5 -25 10 -8 5 -10 10 -5 10 6 0 17 -5 25 -10z m-55 -20 c-3 -5 -12 -10 -18 -10 -7 0 -6 4 3 10 19 12 23 12 15 0z m35 -4 c0 -2 -7 -7 -16 -10 -8 -3 -12 -2 -9 4 6 10 25 14 25 6z m-100 -52 c-24 -21 -34 -24 -43 -15 -9 9 -8 11 7 5 16 -6 18 -4 13 10 -4 10 -3 15 3 11 6 -3 10 -1 10 4 0 6 9 11 21 11 18 0 17 -3 -11 -26z m700 -14 c0 -5 -17 -9 -37 -9 -38 1 -38 1 -8 9 43 11 45 11 45 0z m-757 -14 c4 -10 1 -13 -9 -9 -9 3 -14 0 -12 -8 2 -7 -3 -14 -9 -15 -7 -1 -17 -2 -23 -3 -5 0 -7 -7 -4 -14 7 -20 -34 -53 -48 -39 -9 9 -8 12 5 12 10 0 20 8 24 18 5 13 59 69 69 72 1 0 4 -7 7 -14z m-219 -247 c-9 -10 -12 -19 -6 -19 6 0 9 -7 5 -16 -4 -11 -9 -12 -17 -4 -7 7 -5 20 9 46 11 20 21 31 23 24 2 -6 -4 -20 -14 -31z m-38 -64 c-4 -14 -2 -25 3 -25 6 0 7 -8 4 -17 -6 -15 -7 -15 -14 3 -6 14 -8 11 -9 -16 -1 -46 -11 -114 -17 -120 -9 -9 8 134 20 168 13 38 22 43 13 7z m-49 -177 c-3 -7 -5 -2 -5 12 0 14 2 19 5 13 2 -7 2 -19 0 -25z m-6 -81 c-6 -12 -12 -40 -14 -62 -4 -40 -4 -40 -5 7 -2 49 16 114 25 90 3 -8 0 -24 -6 -35z m1590 -25 c-9 -25 -9 -24 -10 18 0 36 2 41 10 27 7 -12 7 -27 0 -45z m-1584 -54 c-2 -13 -4 -3 -4 22 0 25 2 35 4 23 2 -13 2 -33 0 -45z m1586 -88 c3 -43 2 -58 -4 -45 -7 15 -8 13 -5 -12 3 -18 0 -35 -6 -39 -8 -5 -9 8 -5 47 4 30 7 69 7 88 0 53 7 33 13 -39z m-1566 -93 c2 -36 -1 -47 -7 -37 -11 17 -13 51 -4 74 3 9 7 16 8 16 0 0 2 -24 3 -53z m1540 -54 c-1 -18 -7 -29 -13 -26 -7 3 -10 -6 -8 -24 3 -27 3 -27 -4 -3 -11 34 -3 77 10 58 7 -9 8 -2 4 22 -4 25 -3 30 4 19 5 -9 8 -30 7 -46z m-1515 -42 c-4 -9 -1 -12 7 -7 8 5 11 3 10 -5 -4 -20 11 -59 22 -59 5 0 9 -7 9 -15 0 -31 -18 -13 -40 38 -12 28 -28 55 -34 59 -8 6 -7 8 2 8 6 0 12 8 13 18 0 14 2 14 8 -3 5 -11 6 -26 3 -34z m1482 -37 c4 -10 2 -13 -6 -8 -8 5 -9 1 -4 -12 5 -14 4 -16 -4 -8 -6 6 -8 18 -4 27 8 21 10 21 18 1z m-14 -55 c0 -6 -4 -7 -10 -4 -5 3 -10 1 -10 -6 0 -7 -2 -10 -5 -7 -9 8 6 38 16 32 5 -3 9 -10 9 -15z m-40 -37 c-6 -2 -10 -8 -10 -14 0 -6 -11 -26 -25 -43 -13 -18 -21 -35 -18 -39 6 -6 -13 -10 -31 -7 -5 1 -6 -5 -3 -14 4 -9 1 -15 -8 -15 -8 0 -15 -4 -15 -9 0 -4 -13 -22 -29 -39 -22 -22 -31 -27 -35 -16 -3 8 0 13 7 11 7 -1 11 4 10 11 -2 6 4 12 12 12 8 0 15 4 15 10 0 16 42 60 52 54 4 -3 8 1 8 9 0 8 9 22 20 32 11 10 25 33 32 51 8 23 15 30 20 21 4 -6 3 -13 -2 -15z m-1310 -68 c0 -8 5 -14 10 -14 6 0 10 -7 10 -15 0 -9 8 -19 17 -22 26 -10 53 -36 53 -50 0 -7 7 -10 15 -6 9 3 15 2 14 -3 -4 -23 2 -36 15 -31 9 4 17 -2 21 -14 4 -12 13 -18 21 -15 7 3 25 -6 40 -19 14 -13 31 -26 37 -28 7 -2 9 -8 5 -12 -5 -5 -16 -2 -25 6 -10 8 -34 23 -53 33 -19 11 -37 22 -40 25 -3 4 -19 17 -35 31 -17 14 -30 30 -30 35 0 6 -9 14 -20 19 -24 10 -75 74 -75 93 0 8 5 11 10 8 6 -3 10 -13 10 -21z m1125 -144 c3 -5 -5 -12 -19 -16 -14 -3 -24 -11 -23 -16 1 -6 -7 -12 -18 -14 -11 -1 -21 -8 -23 -13 -2 -6 -9 -11 -15 -11 -6 0 -18 -7 -26 -14 -12 -11 -21 -12 -31 -5 -13 9 -13 10 1 6 9 -3 22 3 30 14 7 10 18 19 24 19 5 0 26 14 45 30 38 32 46 35 55 20z m-798 -106 c-8 -8 -57 11 -57 23 0 12 5 11 30 -3 16 -10 28 -19 27 -20z m633 6 c8 -5 11 -10 5 -10 -5 0 -17 5 -25 10 -8 5 -10 10 -5 10 6 0 17 -5 25 -10z m-32 -9 c11 -7 10 -9 -3 -14 -9 -4 -14 -3 -10 2 3 5 -1 12 -7 14 -7 3 -8 6 -3 6 6 0 16 -3 23 -8z m-568 -11 c-12 -8 -10 -10 9 -10 13 0 22 -3 18 -6 -3 -4 -18 -3 -32 0 -27 7 -25 26 3 26 15 0 15 -2 2 -10z m540 -6 c0 -2 -9 -4 -21 -4 -11 0 -18 4 -14 10 5 8 35 3 35 -6z m-440 -15 c-21 -7 -19 -8 12 -5 21 3 40 1 42 -3 6 -9 -29 -11 -79 -4 -32 5 -36 7 -20 14 11 4 31 7 45 7 l25 0 -25 -9z m395 -9 c-11 -5 -36 -9 -57 -9 -20 -1 -39 -7 -41 -13 -3 -7 -6 -4 -6 7 -1 18 6 20 62 22 42 1 56 -1 42 -7z m-173 -22 c-22 -8 -80 -8 -112 1 -15 4 7 7 52 6 43 0 69 -3 60 -7z"/> <path d="M938 1683 c7 -3 16 -2 19 1 4 3 -2 6 -13 5 -11 0 -14 -3 -6 -6z"/> <path d="M1125 1670 c3 -5 8 -10 11 -10 2 0 4 5 4 10 0 6 -5 10 -11 10 -5 0 -7 -4 -4 -10z"/> <path d="M1315 1620 c3 -5 8 -10 11 -10 2 0 4 5 4 10 0 6 -5 10 -11 10 -5 0 -7 -4 -4 -10z"/> <path d="M721 1584 c0 -11 3 -14 6 -6 3 7 2 16 -1 19 -3 4 -6 -2 -5 -13z"/> <path d="M876 1593 c-26 -3 -54 -16 -81 -39 -23 -19 -46 -34 -52 -34 -5 0 -27 -18 -48 -40 -43 -44 -31 -55 17 -15 16 14 36 25 44 25 9 0 25 5 37 12 12 7 27 13 32 13 21 2 51 19 63 37 7 10 22 18 32 18 25 0 34 16 14 24 -9 3 -16 5 -17 4 -1 -1 -20 -3 -41 -5z m-36 -48 c-7 -8 -17 -15 -22 -15 -11 0 14 29 26 30 5 0 3 -7 -4 -15z"/> <path d="M1258 1593 c7 -3 16 -2 19 1 4 3 -2 6 -13 5 -11 0 -14 -3 -6 -6z"/> <path d="M1140 1583 c-8 -3 -29 -19 -46 -35 -19 -17 -34 -25 -38 -19 -4 5 1 14 10 19 26 15 -78 27 -105 13 -29 -16 -46 -50 -32 -64 8 -8 11 -7 11 2 0 8 6 11 16 7 8 -3 12 -2 9 4 -4 6 6 10 22 10 22 0 25 -2 13 -11 -12 -9 -12 -10 -1 -7 26 7 24 28 -3 28 -13 0 -28 5 -32 12 -5 8 -2 9 10 5 10 -4 29 -7 43 -7 20 0 24 -4 20 -19 -3 -15 0 -17 17 -13 11 2 31 14 44 25 12 11 22 15 22 9 0 -7 4 -12 10 -12 5 0 7 6 4 14 -7 17 28 30 56 21 11 -3 20 -2 20 3 0 5 -10 12 -22 16 -26 7 -27 6 -48 -1z"/> <path d="M1272 1540 c0 -14 2 -19 5 -12 2 6 2 18 0 25 -3 6 -5 1 -5 -13z"/> <path d="M1158 1523 c7 -3 16 -2 19 1 4 3 -2 6 -13 5 -11 0 -14 -3 -6 -6z"/> <path d="M641 1504 c0 -11 3 -14 6 -6 3 7 2 16 -1 19 -3 4 -6 -2 -5 -13z"/> <path d="M874 1475 c-9 -35 -2 -39 25 -13 l23 21 -7 -23 c-5 -17 -4 -21 6 -16 16 9 -9 -12 -41 -34 -12 -8 -29 -22 -38 -30 -14 -14 -14 -15 6 -18 13 -2 35 9 57 30 20 18 43 37 51 41 12 7 12 12 3 23 -6 7 -15 12 -19 9 -5 -3 -11 4 -15 15 -9 29 -43 26 -51 -5z"/> <path d="M959 1473 c13 -26 27 -29 34 -10 4 8 8 9 14 1 4 -6 31 -25 58 -44 28 -19 53 -38 56 -43 5 -6 21 -6 45 1 22 6 62 17 90 25 l52 15 48 -74 48 -74 66 -2 c36 0 73 -1 82 0 13 1 21 -12 32 -51 8 -28 16 -61 18 -72 2 -11 12 -21 24 -23 20 -3 57 -70 84 -155 7 -21 14 -36 17 -33 9 9 12 256 3 261 -4 3 -6 -4 -3 -14 3 -11 -2 -34 -11 -52 -9 -18 -16 -42 -15 -53 0 -21 1 -21 9 -1 6 13 9 15 9 5 1 -37 -16 -39 -32 -5 -9 20 -17 42 -17 50 0 8 -6 12 -14 9 -9 -3 -20 4 -28 18 -14 24 -15 30 -17 66 -1 15 -5 21 -12 16 -8 -5 -10 1 -7 19 4 18 1 24 -9 20 -7 -3 -13 0 -13 6 0 7 -24 11 -65 11 -55 0 -65 3 -66 18 0 15 -1 14 -8 -3 -7 -18 -9 -17 -27 10 -10 17 -21 32 -25 35 -4 3 -16 23 -28 45 -17 33 -26 40 -53 40 -18 1 -36 -3 -40 -9 -5 -7 -17 -7 -40 1 -28 11 -31 11 -15 -1 20 -15 16 -20 -26 -30 -34 -8 -67 11 -45 25 10 7 9 9 -4 9 -10 0 -18 -5 -18 -11 0 -8 -5 -8 -15 1 -8 7 -15 19 -15 26 0 10 -8 13 -26 10 -18 -4 -24 -1 -21 8 4 9 -4 12 -26 11 -18 -2 -38 3 -46 9 -12 9 -12 8 -2 -11z"/> <path d="M1610 1480 c0 -5 5 -10 10 -10 6 0 10 5 10 10 0 6 -4 10 -10 10 -5 0 -10 -4 -10 -10z"/> <path d="M801 1443 c0 -11 3 -13 6 -5 2 6 9 10 14 6 5 -3 9 0 9 5 0 6 -7 11 -15 11 -8 0 -15 -8 -14 -17z"/> <path d="M949 1393 c-24 -21 -50 -43 -57 -50 -16 -16 -23 -16 -59 -2 -15 6 -49 16 -75 23 -42 12 -47 11 -60 -7 -7 -11 -21 -30 -31 -43 -10 -13 -15 -29 -11 -35 4 -7 3 -9 -3 -6 -12 8 -26 -20 -17 -34 3 -5 12 -9 20 -9 9 0 22 -7 30 -15 17 -17 15 -18 -49 -19 -32 -1 -35 1 -20 11 9 7 13 16 9 20 -9 9 -158 5 -167 -5 -15 -15 -39 -165 -39 -244 0 -224 92 -352 289 -403 82 -21 474 -22 572 -1 75 16 173 62 164 76 -3 5 0 7 8 5 19 -8 79 61 105 121 38 90 46 179 27 302 -9 59 -22 119 -28 135 -12 27 -13 27 -100 27 -59 0 -86 -3 -82 -10 4 -6 16 -8 28 -5 14 4 18 3 9 -2 -7 -6 16 -9 60 -9 l73 1 2 -35 c1 -19 -1 -26 -3 -15 -12 47 -14 51 -25 35 -8 -13 -10 -13 -18 -1 -7 10 -22 12 -64 7 -35 -5 -57 -3 -62 3 -4 7 -13 6 -28 -3 -12 -8 -33 -17 -47 -20 -21 -5 -20 -4 5 9 17 8 23 14 15 15 -8 0 -1 7 16 14 18 8 34 18 37 23 8 13 -71 133 -88 133 -8 0 -44 -11 -80 -25 l-66 -25 -66 50 c-36 28 -69 50 -73 50 -3 0 -26 -17 -51 -37z m61 7 c0 -5 -4 -10 -10 -10 -5 0 -10 5 -10 10 0 6 5 10 10 10 6 0 10 -4 10 -10z m34 -19 c3 -4 -10 -8 -29 -9 -18 -2 -36 1 -39 6 -2 4 11 9 30 9 19 1 36 -2 38 -6z m-98 -46 c-12 -11 -28 -28 -36 -38 -11 -15 -11 -17 2 -12 9 4 18 -1 22 -10 3 -10 13 -15 20 -12 8 3 16 3 18 -1 2 -4 16 -17 32 -30 16 -12 24 -22 18 -22 -6 0 -17 7 -26 15 -8 9 -19 14 -23 13 -4 -1 -22 6 -40 15 -18 9 -39 17 -47 17 -10 0 -13 6 -10 15 4 8 1 15 -5 15 -6 0 -11 -5 -11 -11 0 -5 -5 -7 -11 -3 -8 5 -6 10 5 16 10 6 20 7 23 4 3 -3 16 6 29 19 13 14 30 25 38 25 10 0 13 6 10 18 -5 14 -4 15 5 2 8 -11 5 -20 -13 -35z m352 7 c2 -12 8 -22 13 -22 5 0 9 -7 9 -15 0 -8 5 -15 11 -15 5 0 8 -4 4 -9 -3 -5 -1 -12 5 -16 13 -8 13 -25 0 -25 -5 0 -10 6 -10 14 0 8 -6 21 -13 28 -8 7 -18 27 -24 43 -7 21 -16 29 -29 27 -16 -2 -17 -1 -4 7 21 15 34 8 38 -17z m-240 -27 c30 -25 57 -44 59 -42 9 10 -11 34 -48 58 -39 25 -40 27 -15 27 14 0 26 -4 26 -8 0 -4 11 -12 25 -18 16 -8 23 -17 19 -27 -5 -11 -2 -14 10 -9 9 3 16 11 16 16 0 6 8 7 17 4 9 -4 20 -1 25 6 6 10 8 10 8 0 0 -8 -9 -16 -19 -19 -17 -4 -18 -9 -9 -34 5 -16 14 -29 20 -29 5 0 6 -5 3 -11 -4 -6 -16 1 -30 17 -13 15 -22 31 -19 36 3 4 1 8 -4 8 -23 0 -19 -32 8 -61 24 -26 32 -30 44 -20 8 7 17 8 20 3 3 -5 18 -8 33 -7 18 2 20 1 6 -2 -24 -4 -32 -23 -11 -23 6 0 9 -3 5 -6 -3 -3 -21 0 -40 7 -34 12 -87 6 -87 -10 0 -5 21 -7 48 -5 47 4 47 4 15 -8 -18 -7 -41 -20 -51 -29 -10 -8 -24 -13 -32 -11 -8 3 -12 2 -9 -2 8 -9 -34 -56 -50 -56 -6 0 -11 -11 -11 -25 0 -14 -4 -25 -10 -25 -16 0 -5 42 15 56 10 8 15 14 10 14 -4 0 2 8 13 19 26 21 28 46 7 55 -8 3 -15 10 -15 17 0 6 15 2 34 -10 52 -33 54 -25 4 23 -51 48 -131 106 -147 106 -21 0 -11 19 19 37 17 9 30 21 30 25 0 15 13 8 68 -37z m-313 25 c-3 -5 -11 -10 -16 -10 -6 0 -7 5 -4 10 3 6 11 10 16 10 6 0 7 -4 4 -10z m535 -2 c0 -5 -9 -8 -19 -8 -11 0 -25 -2 -33 -3 -7 -2 -9 -2 -4 1 4 2 2 8 -5 13 -8 5 1 7 24 6 20 -1 37 -5 37 -9z m-577 -26 c-3 -12 -8 -22 -12 -22 -4 0 -7 -12 -9 -27 l-1 -28 20 24 c11 13 23 30 28 38 6 12 15 11 57 -3 76 -25 195 -90 237 -129 l38 -35 -25 -31 c-14 -17 -26 -34 -27 -37 0 -4 -2 -16 -4 -27 -2 -10 1 -25 6 -31 7 -8 7 -24 0 -46 -6 -23 -10 -27 -11 -13 -2 14 -4 12 -10 -10 l-8 -30 -1 28 c-1 16 5 30 14 33 12 5 11 11 -7 36 -19 28 -20 31 -5 40 27 14 21 28 -34 79 -44 41 -54 46 -70 36 -21 -13 -6 -28 20 -20 13 4 13 3 2 -5 -16 -11 -112 28 -103 42 3 5 -12 7 -35 4 -22 -3 -45 -3 -51 1 -6 4 13 8 42 9 38 2 57 -2 66 -13 13 -16 60 -21 60 -6 0 11 -39 26 -104 42 -39 10 -50 9 -58 -2 -8 -11 -9 -10 -4 4 3 11 0 17 -10 17 -8 0 -24 5 -35 11 -20 10 -20 11 -2 24 10 8 14 15 10 15 -5 0 0 13 9 30 20 33 26 34 17 2z m112 13 c40 -14 40 -14 8 -13 -18 1 -33 5 -33 9 0 4 -10 5 -22 2 -19 -4 -20 -3 -8 6 8 6 15 11 15 11 0 0 18 -7 40 -15z m483 -48 c12 -18 22 -36 22 -39 0 -3 -19 -8 -42 -11 -39 -5 -46 -3 -71 25 -15 17 -27 31 -25 33 7 6 64 23 78 24 8 1 25 -14 38 -32z m-741 -63 c-3 -3 -12 -4 -19 -1 -8 3 -5 6 6 6 11 1 17 -2 13 -5z m30 -16 c-3 -8 -6 -5 -6 6 -1 11 2 17 5 13 3 -3 4 -12 1 -19z m-57 2 c11 -7 5 -8 -20 -4 -43 8 -51 14 -19 14 13 0 31 -5 39 -10z m515 -10 c-3 -5 -12 -7 -20 -3 -21 7 -19 13 6 13 11 0 18 -4 14 -10z m-555 -16 c0 -8 -4 -12 -10 -9 -6 4 -10 -5 -10 -19 0 -14 -5 -26 -11 -26 -11 0 -3 37 13 58 14 16 18 15 18 -4z m255 -16 c72 -16 145 -55 182 -97 18 -20 33 -40 34 -46 1 -5 2 -89 3 -185 1 -96 6 -185 10 -198 l9 -23 -108 6 c-212 12 -327 74 -375 203 -20 51 -21 70 -17 182 7 164 9 168 61 172 62 5 145 -1 201 -14z m774 -37 c15 -78 15 -214 0 -276 -34 -141 -149 -211 -366 -224 -133 -7 -122 -21 -130 155 -5 119 6 212 29 241 5 7 6 18 2 25 -4 7 -4 10 0 7 3 -3 22 9 41 27 44 41 129 83 192 94 26 4 87 8 134 9 l86 1 12 -59z m51 -25 c0 -26 -6 -18 -14 19 -5 22 -4 26 4 15 5 -8 10 -24 10 -34z m-630 2 c11 -12 20 -18 20 -14 0 4 7 1 15 -8 18 -17 19 -26 5 -26 -6 0 -27 16 -47 35 -20 19 -31 35 -25 35 6 0 20 -10 32 -22z m-488 -33 c3 -14 1 -25 -3 -25 -5 0 -9 11 -9 25 0 14 2 25 4 25 2 0 6 -11 8 -25z m1119 -25 c5 0 8 -37 7 -84 -2 -46 -6 -82 -10 -80 -3 2 -8 -2 -11 -8 -2 -7 -7 -10 -11 -6 -4 3 -3 15 3 26 6 12 9 55 6 103 -2 46 -2 76 1 67 3 -10 10 -18 15 -18z m-1115 -75 c-4 -26 -3 -53 4 -65 6 -11 7 -20 1 -20 -5 0 -6 -15 -1 -36 5 -23 5 -33 -1 -27 -16 16 -24 193 -9 193 9 0 10 -12 6 -45z m544 -75 c0 -5 -8 -10 -17 -10 -15 0 -16 2 -3 10 19 12 20 12 20 0z m552 -87 c-6 -3 -10 -9 -6 -14 3 -5 1 -9 -4 -9 -6 0 -13 7 -16 16 -3 8 -2 12 3 9 5 -3 13 0 16 6 4 5 10 7 14 3 3 -4 0 -9 -7 -11z m-1062 -7 c0 -3 -4 -8 -10 -11 -5 -3 -10 -1 -10 4 0 6 5 11 10 11 6 0 10 -2 10 -4z m30 -59 c1 -20 98 -99 128 -103 8 -2 18 -7 21 -12 3 -6 18 -9 33 -7 19 2 25 -1 22 -10 -6 -15 -63 -3 -74 16 -4 6 -10 10 -14 10 -24 -3 -38 4 -79 42 -25 23 -48 52 -52 65 -3 12 -11 20 -16 17 -5 -3 -6 1 -3 10 6 14 8 14 20 -2 7 -10 14 -22 14 -26z m1010 17 c0 -8 -4 -12 -10 -9 -5 3 -10 1 -10 -5 0 -6 -5 -8 -12 -4 -9 6 -9 9 0 12 7 2 12 10 12 18 0 9 5 12 10 9 6 -3 10 -13 10 -21z m-538 -46 c-7 -30 -9 -31 -14 -10 -3 12 -2 22 3 22 5 0 9 10 10 23 0 12 3 17 5 10 3 -6 1 -26 -4 -45z m483 -14 c-14 -14 -29 -23 -32 -20 -7 7 35 46 49 46 5 0 -3 -12 -17 -26z m-453 -54 c6 0 9 -2 6 -5 -12 -12 -37 7 -30 23 6 16 7 15 10 0 2 -10 8 -18 14 -18z m398 20 c0 -5 -8 -10 -17 -10 -15 0 -16 2 -3 10 19 12 20 12 20 0z m-40 -21 c0 -5 5 -7 12 -3 7 4 8 3 4 -4 -4 -6 -13 -9 -21 -5 -17 6 -20 23 -5 23 6 0 10 -5 10 -11z m-22 -25 c1 -1 -15 -6 -37 -11 -32 -9 -41 -8 -45 4 -3 8 -1 11 4 8 6 -3 10 -1 10 4 0 6 5 11 11 11 5 0 7 -4 4 -10 -3 -5 1 -10 10 -10 12 0 15 5 11 16 -6 15 -4 15 11 3 10 -7 19 -14 21 -15z m-276 -15 c18 -1 44 -5 58 -10 18 -6 7 -7 -37 -5 -40 2 -64 0 -67 -8 -2 -6 -5 -3 -5 6 -1 9 -6 20 -13 24 -8 5 -9 0 -6 -14 4 -12 2 -22 -3 -22 -5 0 -9 6 -9 13 0 8 -4 7 -10 -3 -11 -17 -13 -6 -4 27 6 21 8 22 35 8 15 -8 43 -15 61 -16z m173 1 c-3 -5 -15 -10 -26 -10 -11 0 -17 -4 -14 -10 3 -5 1 -10 -4 -10 -6 0 -11 4 -11 9 0 5 -6 11 -12 14 -7 2 -6 3 3 2 9 -1 23 1 30 6 19 12 42 11 34 -1z m-355 -15 c19 -4 37 -9 40 -12 5 -5 -18 -3 -145 18 l-50 8 60 -4 c33 -2 76 -6 95 -10z m-83 -11 c-3 -3 -12 -4 -19 -1 -8 3 -5 6 6 6 11 1 17 -2 13 -5z"/> <path d="M610 1121 c0 -10 -15 -29 -33 -41 -45 -31 -73 -120 -46 -147 8 -8 7 -17 -3 -32 -10 -17 -10 -24 0 -39 7 -9 20 -32 29 -50 18 -34 76 -72 111 -72 10 0 40 7 66 16 43 15 48 15 65 0 10 -9 24 -14 32 -11 25 9 44 -13 44 -52 0 -34 3 -38 33 -44 31 -6 33 -5 26 15 -4 11 -8 93 -9 180 -2 152 -3 161 -26 186 -55 61 -164 110 -246 110 -35 0 -43 -3 -43 -19z m115 -19 c-3 -9 1 -11 14 -7 11 3 37 -1 58 -10 31 -13 35 -18 23 -26 -13 -9 -12 -10 2 -5 20 6 78 -41 78 -64 0 -13 -1 -13 -10 0 -8 13 -10 12 -10 -2 0 -10 8 -18 18 -19 9 0 12 -3 5 -5 -8 -4 -10 -22 -6 -58 3 -30 0 -77 -7 -107 l-13 -53 -21 27 c-12 15 -26 27 -30 27 -5 0 -3 -7 4 -15 10 -12 9 -15 -7 -15 -10 0 -24 5 -30 11 -9 9 -24 8 -62 -5 -80 -26 -120 -20 -88 13 10 11 8 11 -10 0 -18 -10 -24 -10 -37 0 -9 7 -13 17 -10 22 3 5 0 9 -5 9 -6 0 -11 7 -11 16 0 9 -5 12 -12 8 -8 -5 -9 0 -6 14 4 14 2 20 -5 15 -7 -4 -8 0 -2 13 8 18 10 47 5 69 -9 39 3 76 33 105 17 16 38 28 45 25 7 -3 10 0 7 5 -12 19 6 29 50 27 33 -1 44 -6 40 -15z m182 -344 c-3 -8 -6 -5 -6 6 -1 11 2 17 5 13 3 -3 4 -12 1 -19z m-3 -34 c3 -8 2 -12 -4 -9 -6 3 -10 10 -10 16 0 14 7 11 14 -7z m0 -39 c3 -8 1 -15 -4 -15 -6 0 -10 7 -10 15 0 8 2 15 4 15 2 0 6 -7 10 -15z"/> <path d="M741 1076 c12 -10 59 -15 59 -6 0 5 -14 10 -32 10 -17 0 -29 -2 -27 -4z"/> <path d="M612 1058 c2 -6 10 -14 16 -16 7 -2 10 2 6 12 -7 18 -28 22 -22 4z"/> <path d="M670 783 c-13 -15 -12 -16 4 -10 10 4 25 7 34 7 15 0 15 2 2 10 -20 13 -22 12 -40 -7z"/> <path d="M1370 1149 c-155 -11 -236 -55 -291 -160 -21 -39 -24 -58 -24 -164 0 -66 3 -132 8 -147 7 -27 10 -28 68 -28 33 0 91 7 130 16 55 12 73 21 86 42 10 15 30 43 45 62 16 19 33 40 38 46 7 9 40 109 40 121 0 2 -7 3 -16 3 -13 0 -11 7 11 36 25 33 27 41 21 93 -4 31 -8 61 -8 68 -2 18 -14 19 -108 12z m73 -21 c-2 -5 3 -8 11 -8 9 0 16 -5 16 -11 0 -5 -4 -7 -10 -4 -5 3 -10 -3 -10 -14 0 -11 5 -23 10 -26 12 -7 14 -55 3 -55 -5 0 -15 -13 -24 -29 -13 -22 -14 -32 -5 -41 8 -8 7 -15 -7 -24 -16 -12 -16 -14 -2 -20 11 -4 14 -2 9 7 -5 9 -4 9 6 0 11 -10 10 -16 -7 -30 -11 -10 -23 -29 -28 -41 -10 -35 -86 -132 -101 -132 -8 0 -14 -4 -14 -9 0 -4 -39 -7 -87 -6 -60 2 -74 1 -43 -4 l45 -7 -48 -4 -47 -5 -7 35 c-3 19 -8 29 -10 23 -17 -49 -21 48 -10 204 4 45 41 110 69 119 10 3 17 11 15 17 -1 7 9 12 23 13 41 2 43 3 30 19 -11 13 -8 14 20 9 22 -5 35 -3 40 7 5 7 24 13 44 13 19 0 33 2 31 6 -2 3 19 5 45 5 26 0 46 -3 43 -7z m-356 -450 c-3 -8 -6 -5 -6 6 -1 11 2 17 5 13 3 -3 4 -12 1 -19z"/> <path d="M1178 1063 c6 -2 9 -10 6 -15 -4 -7 -2 -8 5 -4 13 9 5 26 -12 25 -9 0 -8 -2 1 -6z"/> <path d="M1094 959 c-4 -7 -3 -9 4 -5 5 3 13 0 15 -6 4 -9 6 -10 6 -1 1 17 -16 25 -25 12z"/> <path d="M1390 940 c12 -8 12 -10 1 -10 -8 0 -12 -2 -9 -5 3 -3 13 -2 22 1 14 5 15 9 4 15 -7 5 -17 9 -23 9 -5 0 -3 -5 5 -10z"/> <path d="M1098 903 c-3 -13 -2 -23 3 -23 5 0 10 -12 10 -27 1 -16 3 -21 6 -11 2 9 0 31 -5 50 -7 30 -9 31 -14 11z"/> <path d="M1380 889 c0 -5 9 -9 20 -9 11 0 20 2 20 4 0 2 -9 6 -20 9 -11 3 -20 1 -20 -4z"/> <path d="M1362 860 c0 -14 2 -19 5 -12 2 6 2 18 0 25 -3 6 -5 1 -5 -13z"/> <path d="M1255 705 c-22 -8 -31 -14 -20 -14 11 0 34 6 50 14 38 17 22 17 -30 0z"/> <path d="M1563 995 c0 -22 2 -30 4 -17 2 12 2 30 0 40 -3 9 -5 -1 -4 -23z"/> <path d="M778 1413 c7 -3 16 -2 19 1 4 3 -2 6 -13 5 -11 0 -14 -3 -6 -6z"/> <path d="M1158 1413 c7 -3 16 -2 19 1 4 3 -2 6 -13 5 -11 0 -14 -3 -6 -6z"/> <path d="M1406 1345 c4 -8 10 -15 15 -15 4 0 6 7 3 15 -4 8 -10 15 -15 15 -4 0 -6 -7 -3 -15z"/> <path d="M1458 1323 c6 -2 18 -2 25 0 6 3 1 5 -13 5 -14 0 -19 -2 -12 -5z"/> <path d="M1704 1309 c-3 -6 -2 -15 3 -20 5 -5 9 -1 9 11 0 23 -2 24 -12 9z"/> <path d="M411 1214 c0 -11 3 -14 6 -6 3 7 2 16 -1 19 -3 4 -6 -2 -5 -13z"/> <path d="M1635 1190 c3 -5 8 -10 11 -10 2 0 4 5 4 10 0 6 -5 10 -11 10 -5 0 -7 -4 -4 -10z"/> <path d="M1685 1148 c-9 -22 4 -43 17 -30 7 7 7 16 0 29 -10 17 -11 17 -17 1z"/> <path d="M311 774 c0 -11 3 -14 6 -6 3 7 2 16 -1 19 -3 4 -6 -2 -5 -13z"/> <path d="M1421 575 c-13 -19 -28 -33 -35 -32 -6 1 -12 -13 -14 -32 -2 -19 -11 -40 -20 -47 -12 -9 -14 -16 -6 -24 13 -13 22 -3 70 77 40 66 45 116 5 58z"/> <path d="M385 589 c-4 -6 -5 -12 -2 -15 2 -3 7 2 10 11 7 17 1 20 -8 4z"/> <path d="M1270 545 c-30 -7 -111 -14 -179 -14 -123 -1 -123 -1 -117 -23 3 -13 6 -28 6 -34 0 -6 12 -25 28 -42 15 -16 41 -46 58 -65 28 -32 34 -35 76 -30 40 5 49 11 87 60 24 29 41 60 38 67 -3 7 10 20 29 31 19 10 34 22 34 26 0 4 3 14 6 23 7 18 9 18 -66 1z m-10 -47 c-10 -11 -16 -28 -13 -39 4 -15 2 -18 -11 -13 -12 4 -15 2 -10 -9 3 -9 -8 -28 -27 -48 -20 -20 -34 -29 -37 -21 -2 7 -10 12 -18 12 -9 0 -12 -4 -9 -10 3 -5 2 -10 -3 -10 -6 0 -12 7 -16 15 -3 8 -11 15 -18 15 -9 0 -9 -3 0 -12 20 -20 13 -32 -8 -13 -11 10 -18 20 -15 23 2 3 -7 14 -21 25 -14 10 -23 25 -21 32 3 6 1 18 -4 26 -7 11 -9 10 -9 -4 0 -10 -4 -15 -10 -12 -13 8 -13 18 4 40 12 16 16 17 30 6 13 -11 19 -11 31 -1 10 9 15 9 15 1 0 -6 7 -11 15 -11 8 0 15 5 15 10 0 13 87 13 95 0 4 -6 11 -7 17 -4 7 4 6 9 -1 14 -7 3 1 7 17 7 29 0 29 -1 12 -19z"/> <path d="M1201 454 c0 -11 3 -14 6 -6 3 7 2 16 -1 19 -3 4 -6 -2 -5 -13z"/> <path d="M471 534 c0 -11 3 -14 6 -6 3 7 2 16 -1 19 -3 4 -6 -2 -5 -13z"/> <path d="M1431 424 c0 -11 3 -14 6 -6 3 7 2 16 -1 19 -3 4 -6 -2 -5 -13z"/> <path d="M828 313 c7 -3 16 -2 19 1 4 3 -2 6 -13 5 -11 0 -14 -3 -6 -6z"/> <path d="M1158 273 c7 -3 16 -2 19 1 4 3 -2 6 -13 5 -11 0 -14 -3 -6 -6z"/> <path d="M1811 684 c0 -11 3 -14 6 -6 3 7 2 16 -1 19 -3 4 -6 -2 -5 -13z"/> <path d="M480 250 c0 -6 7 -10 15 -10 8 0 15 2 15 4 0 2 -7 6 -15 10 -8 3 -15 1 -15 -4z"/> <path d="M1431 184 c0 -11 3 -14 6 -6 3 7 2 16 -1 19 -3 4 -6 -2 -5 -13z"/> </g> </svg> 